<svg version="1.1" id="logo1" xmlns="http://www.w3.org/2000/svg" xmlns:xlink="http://www.w3.org/1999/xlink" x="0px" y="0px"
	 width="100%" height="100%" viewBox="10.361 78.996 283.389 74.377"
	 enable-background="new 10.361 78.996 283.389 74.377" xml:space="preserve">
<g>
	<g>
		<path fill="#FA788C" d="M153.971,104.194c-0.058-1.449-0.141-2.786-0.269-4.004c-6.929-2.271-11.943-1.031-14.664,0.168
			c-0.257,1.119-0.471,2.374-0.641,3.77C142.509,101.657,148.582,102.153,153.971,104.194z"/>
		<path fill="#FA788C" d="M153.892,112.369c0.045-1.615,0.213-3.052,0.193-3.84c-0.001-0.096-0.004-0.186-0.006-0.279
			c-7.001-2.358-13.082-0.803-16.044,0.315c-0.073,1.568-0.1,3.28-0.083,5.13C143.273,110.42,150.549,111.564,153.892,112.369z"/>
		<path fill="#FA788C" d="M166.341,100.509c-0.108,1.314-0.14,2.64-0.145,3.875c4.681-1.705,9.765-1.936,14.215,0.333
			c-0.105-1.399-0.28-2.804-0.542-4.149C173.654,98.552,169.016,99.477,166.341,100.509z"/>
		<path fill="#FA788C" d="M178.899,97.054c-1.198-3.139-3.189-5.379-6.427-5.379c-3.255,0-4.824,2.308-5.58,5.3
			C172.545,93.771,175.996,95.061,178.899,97.054z"/>
		<path fill="#FA788C" d="M153.309,97.543c-0.785-3.825-2.411-5.932-5.94-5.932c-2.81,0-5.263,1.141-6.961,4.663
			C146.452,92.908,150.047,95.225,153.309,97.543z"/>
		<path fill="#FA788C" d="M154.493,117.464c-0.254-0.701-0.411-1.466-0.502-2.25c-7.118-1.22-12.96,1.753-15.609,3.459
			c0.403,1.96,1.09,3.782,2.032,5.444C145.347,118.605,151.749,117.814,154.493,117.464z"/>
		<path fill="#FA788C" d="M157.013,120.35c-0.478-0.21-0.885-0.488-1.232-0.818c-6.481,1.451-10.233,5.669-12.174,8.745
			c1.691,1.675,3.713,3.075,5.991,4.17C150.811,124.428,155.302,121.663,157.013,120.35z"/>
		<path fill="#FA788C" d="M160.448,120.734c-0.348,0.035-0.713,0.056-1.108,0.056c-0.322,0-0.621-0.026-0.906-0.063
			c-2.242,4.852-2.563,10.361-2.486,13.819c2.026,0.411,4.164,0.629,6.387,0.629c0.012,0,0.022-0.001,0.034-0.001
			C162.6,131.816,162.569,126.032,160.448,120.734z"/>
		<path fill="#FA788C" d="M165.613,115.383c-0.161,1.007-0.412,1.927-0.823,2.712c2.985,0.422,8.155,1.515,13.041,6.455
			c0.682-1.571,1.233-3.281,1.65-5.11C177.03,117.611,172.007,114.696,165.613,115.383z"/>
		<path fill="#FA788C" d="M166.182,108.191c-0.01,0.309-0.023,0.593-0.047,0.846c-0.122,1.24-0.175,2.489-0.252,3.687
			c3.611-0.592,9.352-0.793,14.347,2.162c0.037-0.356,0.072-0.716,0.102-1.079c0.099-1.148,0.183-2.571,0.211-4.131
			C177.199,108.231,172.169,106.942,166.182,108.191z"/>
		<path fill="#FA788C" d="M162.95,120.07c-0.027-0.005-0.051-0.01-0.079-0.016c-0.344,0.185-0.728,0.338-1.159,0.455
			c1.793,1.677,6.08,6.988,6.811,13.58c2.542-0.972,4.67-2.566,6.39-4.669C173.21,126.144,169.641,121.346,162.95,120.07z"/>
		<path fill="#FFFFFF" d="M153.703,100.19c-0.1-0.957-0.229-1.84-0.394-2.647c-3.262-2.318-6.857-4.635-12.902-1.269
			c-0.536,1.109-0.996,2.459-1.369,4.084C141.76,99.159,146.773,97.92,153.703,100.19z"/>
		<path fill="#FFFFFF" d="M179.87,100.567c-0.24-1.242-0.559-2.432-0.971-3.514c-2.903-1.993-6.354-3.282-12.007-0.079
			c-0.28,1.111-0.45,2.316-0.551,3.534C169.016,99.477,173.654,98.552,179.87,100.567z"/>
		<path fill="#FFFFFF" d="M154.08,108.25c-0.025-1.435-0.058-2.788-0.108-4.056c-5.39-2.041-11.462-2.537-15.573-0.066
			c-0.164,1.344-0.287,2.814-0.362,4.438C140.998,107.447,147.078,105.892,154.08,108.25z"/>
		<path fill="#FFFFFF" d="M180.412,104.717c-4.45-2.269-9.534-2.038-14.215-0.333c-0.006,1.451,0.019,2.775-0.015,3.808
			c5.987-1.249,11.017,0.04,14.36,1.484C180.57,108.12,180.541,106.427,180.412,104.717z"/>
		<path fill="#FFFFFF" d="M153.991,115.214c-0.111-0.951-0.125-1.927-0.099-2.845c-3.343-0.805-10.619-1.949-15.94,1.326
			c0.004,0.435,0.008,0.87,0.018,1.321c0.026,1.266,0.17,2.485,0.412,3.656C141.03,116.967,146.873,113.994,153.991,115.214z"/>
		<path fill="#FFFFFF" d="M155.781,119.531c-0.586-0.56-1-1.272-1.288-2.067c-2.744,0.351-9.146,1.142-14.079,6.653
			c0.864,1.525,1.937,2.917,3.193,4.159C145.547,125.2,149.299,120.982,155.781,119.531z"/>
		<path fill="#FFFFFF" d="M158.433,120.728c-0.53-0.071-1.004-0.196-1.42-0.378c-1.711,1.313-6.202,4.078-7.415,12.097
			c1.942,0.934,4.074,1.641,6.349,2.101C155.87,131.089,156.191,125.579,158.433,120.728z"/>
		<path fill="#FFFFFF" d="M161.711,120.51c-0.384,0.103-0.805,0.178-1.264,0.225c2.121,5.298,2.152,11.082,1.92,14.44
			c2.271-0.003,4.319-0.384,6.154-1.085C167.792,127.498,163.504,122.187,161.711,120.51z"/>
		<path fill="#FFFFFF" d="M164.79,118.095c-0.431,0.82-1.041,1.494-1.919,1.96c0.028,0.006,0.052,0.011,0.079,0.016
			c6.691,1.275,10.261,6.073,11.962,9.351c1.156-1.409,2.127-3.045,2.919-4.871C172.945,119.609,167.775,118.517,164.79,118.095z"/>
		<path fill="#FFFFFF" d="M165.883,112.724c-0.061,0.928-0.137,1.822-0.271,2.659c6.395-0.687,11.417,2.229,13.868,4.057
			c0.331-1.448,0.58-2.971,0.749-4.554C175.235,111.931,169.495,112.132,165.883,112.724z"/>
	</g>
	<path fill="#B4D200" d="M64.999,114.538c-2.559-2.68-5.77-3.933-9.449-3.933c-3.667-0.009-6.776,1.332-9.433,3.917
		c-2.379,2.315-3.778,4.691-3.883,8.126c-0.122,4.003,0.692,6.491,3.167,8.967c7.292,7.296,16.522-4.865,16.522-4.865l1.499,8.181
		C63.421,134.931,73.583,123.531,64.999,114.538z M56.425,123.98l-1.127,2.969l-2.518-1.937l-3.17-0.154l1.063-2.99l-0.833-3.065
		l3.173,0.087l2.657-1.738l0.898,3.045l2.475,1.988L56.425,123.98z"/>
	<path fill="#FADC3C" d="M87.075,109.052c-1.388,0-2.724,0.221-3.977,0.625c0.052-0.801,0.111-1.584,0.174-2.34
		c0.276-3.299,0.603-6.116,0.512-8.069c-0.002-0.017-0.003-0.032-0.003-0.051c-0.016-0.274-0.058-0.55-0.131-0.824
		c-0.21-0.786-0.645-1.454-1.221-1.974c-1.11-0.998-2.75-1.428-4.383-0.99c-0.813,0.217-1.519,0.626-2.083,1.153
		c-0.401,0.375-0.886,1.006-1.056,1.719c-0.257,1.076-0.534,4.49-0.675,8.723c-0.002,0.1-0.005,0.194-0.008,0.294
		c-0.242,7.92-0.099,13.796-0.085,14.674c0,1.771,0.357,3.457,1,4.995c1.821,4.35,5.951,7.488,10.855,7.896
		c0.358,0.029,0.718,0.049,1.083,0.049c7.146,0,12.94-5.793,12.94-12.939C100.015,114.846,94.222,109.052,87.075,109.052z
		 M89.706,123.961l-1.127,2.969l-2.518-1.938l-3.169-0.154l1.062-2.99l-0.833-3.064l3.173,0.086l2.657-1.737l0.899,3.044
		l2.475,1.989L89.706,123.961z"/>
	<path fill="#FA788C" d="M23.354,109.052c-1.388,0-2.724,0.221-3.978,0.625c0.052-0.801,0.111-1.584,0.174-2.34
		c0.276-3.299,0.603-6.116,0.511-8.069c-0.001-0.017-0.003-0.032-0.003-0.051c-0.016-0.274-0.058-0.55-0.131-0.824
		c-0.21-0.786-0.646-1.454-1.221-1.974c-1.11-0.998-2.75-1.428-4.382-0.99c-0.813,0.217-1.519,0.626-2.083,1.153
		c-0.402,0.375-0.887,1.006-1.056,1.719c-0.257,1.076-0.534,4.49-0.675,8.723c-0.003,0.1-0.006,0.194-0.008,0.294
		c-0.243,7.92-0.1,13.796-0.086,14.674c0,1.771,0.357,3.457,1,4.995c1.821,4.35,5.951,7.488,10.855,7.896
		c0.358,0.029,0.718,0.049,1.083,0.049c7.146,0,12.939-5.793,12.939-12.939C36.293,114.846,30.5,109.052,23.354,109.052z
		 M25.985,123.961l-1.128,2.969l-2.517-1.938l-3.17-0.154l1.062-2.99l-0.833-3.064l3.173,0.086l2.658-1.737l0.898,3.044l2.475,1.989
		L25.985,123.961z"/>
	<path fill="#FA788C" d="M211.328,121.515c0-0.001,0-0.001,0-0.002s0-0.002,0-0.004c0-0.001,0-0.005,0-0.008s0-0.007,0-0.011
		c0-0.001,0-0.002,0-0.002c-0.009-6.877-5.576-12.447-12.441-12.447s-12.432,5.57-12.44,12.447c0,0,0,0.001,0,0.002
		c0,0.004-0.002,0.008-0.002,0.011s0.002,0.007,0.002,0.008c0,0.002,0,0.003,0,0.004s0,0.001,0,0.002v9.327
		c0,0.003-0.002,0.006-0.002,0.01s0.002,0.008,0.002,0.011c0.002,1.015,0.368,1.942,0.973,2.662
		c0.761,0.906,1.898,1.482,3.173,1.482s2.413-0.576,3.174-1.482c0.133-0.158,0.252-0.328,0.36-0.503
		c0.388-0.632,0.613-1.373,0.613-2.17v-9.351c0-2.295,1.858-4.154,4.147-4.154c2.29,0,4.147,1.859,4.147,4.154v9.351
		c0,0.797,0.226,1.538,0.613,2.17c0.109,0.175,0.228,0.345,0.36,0.503c0.761,0.906,1.899,1.482,3.174,1.482
		c1.273,0,2.412-0.576,3.173-1.482c0.604-0.72,0.97-1.647,0.974-2.662c0-0.003,0-0.007,0-0.011s0-0.007,0-0.01V121.515z"/>
	<path fill="#50C8F0" d="M130.826,122.376c0-0.003,0-0.003,0-0.003c0-0.004,0-0.008,0-0.012c0-0.002,0-0.005,0-0.008
		c0,0,0-0.001,0-0.003c0-0.001,0-0.002,0-0.002v-9.326c0-0.005,0-0.007,0-0.012c0-0.003,0-0.007,0-0.01
		c-0.003-1.015-0.369-1.941-0.974-2.662c-0.761-0.906-1.899-1.482-3.173-1.482s-2.413,0.576-3.173,1.482
		c-0.133,0.157-0.251,0.328-0.36,0.504c-0.388,0.632-0.614,1.373-0.614,2.168v2.423v6.928c0,2.296-1.857,4.155-4.147,4.155
		c-1.776,0-3.288-1.121-3.878-2.693c-0.17-0.456-0.269-0.946-0.269-1.462v-9.351c0-0.795-0.227-1.536-0.614-2.168
		c-0.109-0.176-0.227-0.347-0.359-0.504c-0.761-0.906-1.899-1.482-3.174-1.482c-1.274,0-2.413,0.576-3.173,1.482
		c-0.604,0.721-0.97,1.647-0.973,2.662c0,0.003-0.001,0.007-0.001,0.01c0,0.005,0.001,0.007,0.001,0.012v9.326c0,0,0,0.001,0,0.002
		c0,0.002,0,0.002,0,0.002c-0.001,0.004-0.001,0.007-0.001,0.009c0,0.004,0.001,0.008,0.001,0.012c0,0,0,0,0,0.003
		c0.009,6.875,5.576,12.446,12.441,12.446c1.338,0,2.627-0.215,3.836-0.606c0.021,1.487,0.014,2.97-0.033,4.685
		c-0.131,4.814-1.914,7.026-5.205,6.111c-2.941-0.815-1.699-4.403-5.159-4.813c-2.765-0.328-4.533,1.732-4.532,3.485l-0.002,0.59
		c0.001,0.623,0.43,2.32,1.014,3.151c2.158,3.058,4.815,5.402,10.292,5.911c4.14,0.386,9.025-2.309,10.462-6.677
		c1.046-3.179,1.542-9.2,1.717-15.212C130.861,128.472,130.828,122.905,130.826,122.376z"/>
	<path fill="#FA788C" d="M293.75,121.515c0-0.001,0-0.001,0-0.002s0-0.002,0-0.004c0-0.001,0-0.005,0-0.008s0-0.007,0-0.011
		c0-0.001,0-0.002,0-0.002c-0.01-6.877-5.576-12.447-12.441-12.447c-6.864,0-12.432,5.57-12.441,12.447c0,0,0,0.001,0,0.002
		c0,0.004-0.001,0.008-0.001,0.011s0,0.007,0.001,0.008c0,0.002,0,0.003,0,0.004s0,0.001,0,0.002v9.327
		c0,0.002-0.001,0.006-0.001,0.01s0.001,0.007,0.001,0.011c0.003,1.015,0.369,1.941,0.974,2.662
		c0.761,0.906,1.899,1.482,3.173,1.482c1.275,0,2.413-0.576,3.174-1.482c0.133-0.159,0.253-0.328,0.359-0.504
		c0.388-0.631,0.615-1.372,0.615-2.169v-9.351c0-2.295,1.856-4.154,4.146-4.154s4.147,1.859,4.147,4.154v9.351
		c0,0.797,0.227,1.538,0.613,2.169c0.108,0.176,0.228,0.345,0.36,0.504c0.761,0.906,1.899,1.482,3.174,1.482
		c1.273,0,2.411-0.576,3.172-1.482c0.605-0.721,0.971-1.647,0.975-2.662c0-0.004,0-0.007,0-0.011s0-0.008,0-0.01V121.515z"/>
	<path fill="#FA788C" d="M250.377,109.043c-8.505,0.112-11.644,6.846-11.703,13.579c-0.121,10.242,6.516,12.788,12.851,12.335
		c7.602-0.622,10.619-2.773,10.979-12.223v0.058C262.746,114.87,259.186,108.928,250.377,109.043z M254.206,122.3v-0.021
		c-0.109,3.379-1.023,4.149-3.329,4.371c-1.922,0.162-3.935-0.748-3.898-4.411c0.018-2.408,0.971-4.819,3.551-4.858
		C253.201,117.34,254.279,119.466,254.206,122.3z"/>
	<g>
		<path fill="#B4D200" d="M222.123,132.403l3.115-11.631c0,0,3.375-12.683,1.564-13.166c-1.812-0.486-5.229,12.172-5.229,12.172
			s-0.004,0.02-0.004,0.024l-3.11,11.605c-0.001,0.004-0.003,0.007-0.004,0.011c0,0.005-0.001,0.009-0.003,0.012
			c0,0-1.053,2.952,1.026,3.509C221.556,135.497,222.123,132.403,222.123,132.403z"/>
		<g>
			<polygon fill="#FADC3C" points="233.324,110.254 231.443,116.907 225.615,113.186 218.716,113.449 220.446,106.767 
				218.06,100.277 224.96,99.862 230.388,95.591 232.916,102.023 238.657,105.869 			"/>
			<polygon fill="#FFFFFC" points="231.647,109 230.424,113.323 226.635,110.904 222.151,111.077 223.277,106.732 221.726,102.515 
				226.21,102.245 229.74,99.468 231.382,103.649 235.114,106.148 			"/>
			<polygon fill="#FA788C" points="229.883,107.606 229.32,109.6 227.57,108.484 225.5,108.564 226.022,106.559 225.304,104.612 
				227.374,104.488 229.003,103.206 229.761,105.138 231.484,106.289 			"/>
		</g>
	</g>
	<path fill="#FADC3C" d="M224.915,92.057c0,0-3.387-5.908-9.085-5.612l4.954-2.953C220.784,83.491,224.147,88.548,224.915,92.057z"
		/>
	<path fill="#FADC3C" d="M237.203,95.88c0,0,6.782-0.617,9.81,4.22l-0.423-5.751C246.589,94.349,240.518,94.495,237.203,95.88z"/>
	<polygon fill="#FADC3C" points="230.918,91.863 227.051,79.479 232.576,78.996 	"/>
	<polygon fill="#FADC3C" points="233.15,92.675 240.151,81.754 244.072,85.675 	"/>
</g>
</svg>
