<svg version="1.1" id="logo2" xmlns="http://www.w3.org/2000/svg" xmlns:xlink="http://www.w3.org/1999/xlink" x="0px" y="0px"
	 width="100%" height="100%" viewBox="88.456 30.608 205.204 47.153"
	 enable-background="new 88.456 30.608 205.204 47.153" xml:space="preserve">
<g>
	<g>
		<path fill="#FA788C" d="M92.852,44.873l6.689,1.514c-1.953,5.566-3.418,11.671-4.395,18.312l-6.69-1.514
			C89.401,56.738,90.866,50.635,92.852,44.873z M106.183,32.47c3.776,4.004,6.559,8.416,8.35,13.233
			c1.823,3.711,2.734,9.213,2.734,16.505c0,4.037-0.765,6.966-2.295,8.789c-1.953,2.148-4.428,3.223-7.422,3.223
			c-2.832,0-5.127-0.438-6.885-1.318l-0.781-6.885c2.54,0.912,4.704,1.367,6.495,1.367c1.204,0,2.132-0.439,2.783-1.318
			c0.813-0.847,1.221-2.263,1.221-4.248c0-4.753-0.57-8.79-1.709-12.11c-2.083-5.144-4.753-9.554-8.008-13.233L106.183,32.47z
			 M121.467,41.064c3.776,3.223,7.389,7.471,10.84,12.744l-5.323,4.396c-3.516-5.274-7.081-9.604-10.694-12.989L121.467,41.064z"/>
		<path fill="#FA788C" d="M172.641,33.789c2.474,0,4.541,0.847,6.202,2.539c1.66,1.986,2.49,4.281,2.49,6.885v1.709
			c-0.293,2.214-0.732,4.313-1.318,6.299c0.65,0.358,1.188,0.781,1.611,1.27c1.367,1.693,2.082,4.119,2.147,7.276v2.246
			c-0.032,3.938-0.798,7.698-2.295,11.279l-6.104-0.977c1.53-4.102,2.297-7.536,2.297-10.303c0-2.312-0.375-3.874-1.125-4.688
			c-0.65-0.553-1.594-0.83-2.832-0.83c-1.432,0.457-2.782,1.222-4.053,2.296l-1.904-6.3c2.052-1.074,4.119-1.725,6.201-1.953
			c0.848-2.278,1.271-4.28,1.271-6.006c0-1.888-0.374-3.142-1.123-3.76c-0.78-0.586-1.903-0.879-3.369-0.879
			c-0.716,0.065-1.399,0.163-2.051,0.293c-1.854,10.515-2.931,21.485-3.224,32.911l-6.104-0.586
			c0.129-10.384,1.008-20.395,2.637-30.03c-0.488,0.261-0.977,0.537-1.465,0.83l-1.123-3.271c-0.326,1.204-0.652,2.393-0.977,3.564
			c0.715,0.032,1.416,0.065,2.1,0.098l-1.514,6.494c-0.781,0-1.547-0.016-2.296-0.049c-1.302,5.111-2.539,10.238-3.712,15.382
			c1.791,0.814,3.402,1.433,4.836,1.855l-3.42,5.322c-0.879-0.391-1.789-0.83-2.733-1.318c-0.293,1.367-0.586,2.702-0.879,4.004
			l-5.957-1.367c0.422-1.953,0.846-3.874,1.27-5.762c-1.335-0.813-2.686-1.692-4.053-2.637c-1.693-1.302-2.54-2.881-2.54-4.736
			c0-1.921,0.911-6.446,2.735-13.575c-0.945-0.357-1.856-0.732-2.735-1.123l2.1-6.494c0.813,0.325,1.612,0.635,2.393,0.928
			c0.781-2.864,1.644-5.974,2.588-9.327l6.104,1.368c-1.074,3.581-2.02,6.804-2.832,9.668c0.813,0.163,1.644,0.325,2.49,0.488
			c0.422-1.595,0.847-3.142,1.27-4.639l5.566,1.221l-0.78-2.198C163.216,34.928,167.953,33.789,172.641,33.789z M150.569,49.512
			c-0.879-0.13-1.726-0.293-2.539-0.488c-1.595,5.99-2.393,9.75-2.393,11.28c0,0.879,0.586,1.677,1.758,2.393
			C148.437,58.074,149.496,53.679,150.569,49.512z"/>
		<path fill="#FA788C" d="M197.886,30.907l5.908,1.368c-1.073,3.516-2.02,6.707-2.832,9.571c0.91,0.195,1.808,0.358,2.687,0.488
			c0.423-1.628,0.847-3.206,1.271-4.736l5.713,1.367c-0.358,1.367-0.717,2.718-1.074,4.053c0.813,0.032,1.628,0.065,2.441,0.098
			l-0.929,3.857c2.052-0.357,4.103-0.65,6.152-0.879c0.032-1.302,0.081-2.571,0.146-3.809c-1.789,0.228-3.516,0.505-5.176,0.83
			l-0.586-6.104c2.116-0.358,4.23-0.651,6.348-0.879c0.195-1.79,0.424-3.532,0.685-5.225l6.104,0.586
			c-0.195,1.368-0.375,2.719-0.537,4.053c2.506-0.163,4.979-0.244,7.422-0.244l0.586,6.104c-2.995,0-5.859,0.098-8.594,0.293
			c-0.099,1.302-0.181,2.571-0.244,3.809c3.516-0.293,6.965-0.439,10.352-0.439l0.586,6.104c-3.711,0-7.26,0.131-10.645,0.391
			c0.162,1.628,0.324,3.305,0.488,5.029c2.896-0.195,5.762-0.293,8.594-0.293l0.586,6.104c-2.963,0-5.812,0.081-8.545,0.244
			c0.129,1.497,0.275,3.027,0.438,4.59c2.931-0.162,5.827-0.244,8.69-0.244l0.586,6.104c-9.537,0-18.312,0.635-26.318,1.904
			l-0.439-4.736l-1.66,2.637c-1.041-0.423-2.133-0.944-3.271-1.563c-0.325,1.433-0.635,2.849-0.928,4.248l-5.763-1.367
			c0.422-2.019,0.847-3.987,1.27-5.908c-1.335-0.813-2.718-1.692-4.15-2.637c-1.758-1.302-2.637-2.897-2.637-4.785
			c0-1.953,0.928-6.526,2.783-13.722c-1.172-0.357-2.295-0.748-3.369-1.172l2.1-6.494c1.043,0.358,2.067,0.684,3.076,0.977
			C196.014,37.549,196.91,34.358,197.886,30.907z M201.891,49.023c-0.978-0.13-1.922-0.276-2.832-0.439
			c-1.692,6.219-2.54,10.125-2.54,11.72c0,1.009,0.684,1.904,2.052,2.686C199.675,58.106,200.783,53.451,201.891,49.023z
			 M208.678,68.751c3.45-0.488,6.853-0.862,10.206-1.123c-0.131-1.563-0.277-3.06-0.44-4.492c-2.962,0.293-5.812,0.684-8.545,1.172
			l-0.586-6.104c2.864-0.456,5.713-0.831,8.545-1.124c-0.163-1.691-0.325-3.336-0.487-4.932c-2.734,0.358-5.354,0.781-7.861,1.27
			l-0.391-3.857c-0.425,0.033-0.848,0.033-1.271,0c-1.367,5.371-2.638,10.76-3.81,16.163c1.953,0.879,3.711,1.547,5.273,2.002
			L208.678,68.751z"/>
	</g>
	<path fill="#FA788C" d="M293.66,73.184c0,2.527-2.05,4.577-4.578,4.577h-37.996c-2.528,0-4.578-2.05-4.578-4.577V35.186
		c0-2.528,2.05-4.578,4.578-4.578h37.996c2.528,0,4.578,2.049,4.578,4.578V73.184z"/>
	<g>
		<path fill="#FFFFFF" d="M254.662,35.634c0.336,0,0.588,0.052,0.756,0.155c0.193,0.129,0.297,0.31,0.311,0.542
			c0,0.633-0.123,1.596-0.368,2.887h1.53c0.49,0,0.865,0.091,1.124,0.271c0.231,0.206,0.349,0.549,0.349,1.026
			c0,1.847-0.252,3.693-0.756,5.541c-0.232,0.891-0.542,1.763-0.93,2.615c0.568,0.542,1.104,1.085,1.607,1.627
			c0.271,0.22,0.406,0.504,0.406,0.853c-0.013,0.322-0.109,0.581-0.291,0.774c-0.154,0.155-0.4,0.232-0.734,0.232
			c-0.232,0-0.576-0.213-1.027-0.639c-0.311-0.323-0.639-0.652-0.987-0.988c-0.414,0.658-0.872,1.298-1.376,1.918
			c-0.556,0.594-0.969,0.91-1.24,0.949c-0.438,0-0.748-0.116-0.93-0.349c-0.168-0.181-0.252-0.407-0.252-0.678
			c0-0.246,0.084-0.472,0.252-0.679c0.801-0.853,1.479-1.698,2.034-2.537c-0.466-0.427-0.942-0.84-1.435-1.24
			c-0.517-0.465-0.773-1.039-0.773-1.725c0-0.103,0.064-0.478,0.193-1.123c0.336-1.317,0.64-2.622,0.91-3.913h-0.484
			c-0.311,0-0.543-0.078-0.697-0.232c-0.154-0.168-0.232-0.427-0.232-0.775c0-0.322,0.092-0.568,0.271-0.736
			c0.168-0.129,0.388-0.193,0.658-0.193h0.853c0.181-0.969,0.343-1.931,0.484-2.887c0.013-0.193,0.091-0.368,0.231-0.523
			C254.274,35.692,254.455,35.634,254.662,35.634z M255.166,47.315c0.09-0.168,0.168-0.336,0.232-0.504
			c0.605-1.523,0.98-3.338,1.123-5.443c-0.014-0.142-0.116-0.213-0.311-0.213h-1.297c-0.232,1.021-0.523,2.176-0.873,3.468
			c-0.154,0.555-0.231,0.917-0.231,1.084c0,0.375,0.09,0.607,0.271,0.698C254.455,46.715,254.817,47.019,255.166,47.315z
			 M259.699,43.79h8.446c0.878,0,1.317,0.438,1.317,1.317v0.93c0,0.322-0.092,0.555-0.271,0.697
			c-0.181,0.155-0.434,0.232-0.756,0.232c-0.361,0-0.613-0.09-0.755-0.271c-0.116-0.155-0.175-0.374-0.175-0.658v-0.484
			c0-0.143-0.098-0.213-0.291-0.213h-2.188v1.704h2.558c0.892,0,1.336,0.382,1.336,1.144v3.177c0,0.529-0.115,0.897-0.349,1.104
			c-0.231,0.193-0.612,0.297-1.143,0.31h-0.505c-0.206,0-0.381-0.013-0.522-0.039c-0.192-0.025-0.36-0.122-0.503-0.29
			c-0.115-0.181-0.175-0.381-0.175-0.601c0-0.155,0.013-0.291,0.039-0.407c0.038-0.154,0.122-0.277,0.252-0.368
			c0.116-0.052,0.245-0.077,0.387-0.077h0.33c0.116,0,0.175-0.026,0.175-0.077v-2.17c0-0.052-0.059-0.077-0.175-0.077h-1.705v4.029
			c0,0.322-0.077,0.555-0.231,0.697c-0.168,0.155-0.42,0.232-0.756,0.232c-0.311,0-0.549-0.077-0.718-0.232
			c-0.143-0.143-0.213-0.375-0.213-0.697v-4.029h-1.627c-0.104,0-0.155,0.052-0.155,0.154v3.022c0,0.568-0.336,0.853-1.008,0.853
			c-0.686,0-1.025-0.284-1.025-0.853V48.11c0-0.71,0.444-1.065,1.336-1.065h2.479V45.34h-2.479c-0.154,0-0.231,0.07-0.231,0.213
			v0.563c0,0.361-0.071,0.595-0.214,0.697c-0.154,0.155-0.426,0.232-0.813,0.232c-0.322,0-0.55-0.07-0.679-0.213
			c-0.168-0.142-0.252-0.381-0.252-0.717v-1.007C258.439,44.229,258.859,43.79,259.699,43.79z M260.55,36.273h6.433
			c0.917,0,1.376,0.407,1.376,1.22v1.26h0.484c0.271,0,0.471,0.052,0.601,0.155c0.116,0.104,0.175,0.31,0.175,0.619
			c0,0.246-0.045,0.439-0.137,0.581c-0.154,0.182-0.367,0.271-0.639,0.271h-0.484v1.395c0,0.775-0.406,1.163-1.221,1.163h-6.664
			c-0.452-0.039-0.686-0.323-0.697-0.853c0.014-0.504,0.245-0.762,0.697-0.775h5.482c0.244,0,0.381-0.103,0.406-0.31v-0.62h-6.818
			c-0.271,0-0.473-0.064-0.602-0.193c-0.115-0.129-0.175-0.349-0.175-0.659c0-0.271,0.06-0.478,0.175-0.619
			c0.129-0.104,0.329-0.155,0.602-0.155h6.818v-0.484c0-0.22-0.136-0.342-0.406-0.368h-5.405c-0.466-0.013-0.697-0.297-0.697-0.853
			C259.854,36.532,260.085,36.273,260.55,36.273z"/>
		<path fill="#FFFFFF" d="M275.798,35.634c0.22,0,0.465,0.071,0.736,0.213c0.297,0.181,0.444,0.42,0.444,0.717
			c0,0.362-0.108,0.801-0.329,1.317c-0.414,1.072-1.098,2.351-2.054,3.836c0.504,0.542,0.987,1.124,1.452,1.743
			c0.438-1.007,0.847-2.034,1.222-3.08c0.231-0.374,0.517-0.562,0.853-0.562c0.231,0,0.472,0.052,0.717,0.155
			c0.311,0.168,0.466,0.4,0.466,0.697c-0.026,0.31-0.091,0.581-0.194,0.813c-0.941,2.44-2.351,5.205-4.223,8.291
			c1.136-0.232,2.176-0.522,3.117-0.871c-0.192-0.594-0.405-1.176-0.639-1.744c-0.104-0.322-0.154-0.574-0.154-0.755
			c0-0.22,0.104-0.407,0.31-0.563c0.22-0.142,0.446-0.213,0.679-0.213c0.233,0,0.445,0.11,0.639,0.329
			c0.543,1.331,1.021,2.635,1.435,3.914c0.013,0.052,0.021,0.084,0.021,0.097c0.826-1.473,1.389-3.016,1.686-4.63
			c0.221-1.008,0.374-2.402,0.465-4.185h-1.763c-0.297,0-0.529-0.078-0.697-0.232c-0.155-0.181-0.231-0.439-0.231-0.775
			c0-0.322,0.076-0.574,0.231-0.756c0.168-0.181,0.4-0.271,0.697-0.271h1.841c0.025-0.788,0.038-1.641,0.038-2.558
			c0-0.284,0.091-0.529,0.271-0.736c0.168-0.142,0.414-0.232,0.736-0.271c0.35,0.013,0.602,0.084,0.755,0.213
			c0.144,0.155,0.228,0.368,0.253,0.639c0,0.956-0.014,1.86-0.039,2.712h2.44c1.382,0,2.073,0.71,2.073,2.131
			c0,5.114-0.071,8.317-0.213,9.608c-0.078,0.904-0.278,1.537-0.602,1.898c-0.361,0.452-0.943,0.691-1.744,0.717
			c-1.277-0.013-2.279-0.22-3.003-0.62c-0.413-0.154-0.618-0.542-0.618-1.162c0.037-0.258,0.153-0.465,0.349-0.62
			c0.181-0.154,0.399-0.232,0.657-0.232c0.064,0,0.156,0.026,0.271,0.078c0.839,0.297,1.62,0.445,2.344,0.445
			c0.26-0.064,0.395-0.445,0.407-1.143c0.052-1.228,0.077-4.043,0.077-8.447c0-0.271-0.059-0.445-0.174-0.522
			c-0.078-0.064-0.227-0.097-0.446-0.097h-1.897c-0.104,1.77-0.316,3.345-0.64,4.727c-0.517,2.854-1.453,5.23-2.81,7.129
			c-0.361,0.349-0.826,0.529-1.396,0.543c-0.388-0.026-0.633-0.136-0.735-0.33c-0.129-0.168-0.193-0.342-0.193-0.522
			c0-0.232,0.051-0.414,0.154-0.543c0.115-0.168,0.231-0.336,0.349-0.503c-0.231-0.078-0.399-0.246-0.503-0.504
			c-0.053-0.182-0.104-0.368-0.155-0.562c-1.008,0.438-2.047,0.794-3.118,1.065c-1.485,0.426-2.52,0.639-3.101,0.639
			c-0.697,0-1.054-0.406-1.065-1.221c0.053-0.49,0.381-0.774,0.988-0.852c0.09-0.013,0.182-0.026,0.271-0.039
			c0.979-1.55,1.885-3.177,2.711-4.882c-0.942-1.124-2.061-2.273-3.352-3.448c-0.31-0.245-0.472-0.504-0.484-0.775
			c0.014-0.283,0.104-0.497,0.271-0.639c0.182-0.194,0.374-0.291,0.581-0.291c0.361,0.013,0.679,0.077,0.949,0.194
			c0.787-1.253,1.435-2.635,1.938-4.146C275.3,35.821,275.526,35.634,275.798,35.634z"/>
		<path fill="#FFFFFF" d="M255.03,56.169h11.701c1.032,0,1.55,0.523,1.55,1.569v13.464c0,0.788-0.115,1.311-0.35,1.569
			c-0.258,0.31-0.781,0.465-1.568,0.465c-1.047,0-1.751-0.064-2.111-0.193c-0.426-0.182-0.652-0.511-0.679-0.988
			c0-0.271,0.064-0.504,0.193-0.697c0.129-0.194,0.291-0.291,0.483-0.291h1.474c0.321-0.013,0.483-0.143,0.483-0.388v-3.506h-4.262
			v4.823c0,0.349-0.097,0.594-0.291,0.736c-0.168,0.168-0.439,0.252-0.813,0.252c-0.323,0-0.575-0.084-0.756-0.252
			c-0.154-0.143-0.232-0.388-0.232-0.736v-4.823h-4.339c-0.207,2.131-0.601,3.867-1.183,5.211c-0.271,0.62-0.729,0.93-1.375,0.93
			c-0.736-0.064-1.104-0.4-1.104-1.007c0.013-0.207,0.084-0.446,0.214-0.717c0.71-1.602,1.148-3.248,1.316-4.94
			c0.091-0.93,0.147-1.938,0.175-3.021v-6.045C253.558,56.641,254.048,56.169,255.03,56.169z M255.63,65.332h4.224v-2.635h-4.185
			v0.931C255.669,64.209,255.656,64.777,255.63,65.332z M255.669,60.838h4.185v-2.809h-3.972c-0.143,0-0.213,0.052-0.213,0.154
			V60.838z M261.946,58.029v2.809h4.263V58.28c0-0.167-0.084-0.251-0.252-0.251H261.946z M261.946,62.697v2.635h4.263v-2.635
			H261.946z"/>
		<path fill="#FFFFFF" d="M273.647,64.538h4.882c0.865,0,1.299,0.445,1.299,1.337v5.482c0,0.891-0.434,1.336-1.299,1.336h-4.882
			c-0.892,0-1.337-0.445-1.337-1.336v-5.482C272.311,64.983,272.755,64.538,273.647,64.538z M274.945,56.324h11.102
			c0.916,0,1.375,0.472,1.375,1.414v3.874c0,0.918-0.459,1.376-1.375,1.376h-11.102c-0.917,0-1.375-0.458-1.375-1.376v-3.874
			C273.57,56.796,274.028,56.324,274.945,56.324z M277.348,70.911c0.271,0,0.407-0.135,0.407-0.406v-3.777
			c0-0.271-0.137-0.407-0.407-0.407h-2.558c-0.246,0-0.369,0.136-0.369,0.407v3.777c0,0.271,0.123,0.406,0.369,0.406H277.348z
			 M284.864,61.147c0.271,0,0.406-0.129,0.406-0.387v-2.17c0-0.271-0.135-0.407-0.406-0.407h-8.737
			c-0.271,0-0.405,0.136-0.405,0.407v2.17c0,0.258,0.135,0.387,0.405,0.387H284.864z M282.462,64.538h4.805
			c0.891,0,1.336,0.445,1.336,1.337v5.482c0,0.891-0.445,1.336-1.336,1.336h-4.805c-0.865,0-1.299-0.445-1.299-1.336v-5.482
			C281.164,64.983,281.597,64.538,282.462,64.538z M286.123,70.911c0.246,0,0.369-0.135,0.369-0.406v-3.777
			c0-0.271-0.123-0.407-0.369-0.407h-2.479c-0.271,0-0.406,0.136-0.406,0.407v3.777c0,0.271,0.135,0.406,0.406,0.406H286.123z"/>
	</g>
</g>
</svg>
