<svg xmlns="http://www.w3.org/2000/svg" class="svgicon hidden">
<defs>
<symbol id="shape-triangle_right" viewBox="0 0 33.126 39.225" class="">
	<path fill="#FCE784" stroke="#682718" stroke-linecap="round" stroke-linejoin="round" stroke-miterlimit="10" d="M12.292,0.822
		c0,0,18.477,12.661,20.188,18.135S20.523,34.292,10.601,37.372c-5.943,1.844,0.691-13.789-6.791-23.875
		C-0.126,8.193,9.29-1.374,12.292,0.822z"/>
	<path fill="#F8F397" stroke="#682718" stroke-linecap="round" stroke-linejoin="round" stroke-miterlimit="10" d="M7.06,6.054
		c0,0,18.477,12.661,20.188,18.135C28.958,29.664,16.983,35.481,7.06,38.56C-2.863,41.64-0.426,0.581,7.06,6.054z"/>
</symbol>
<symbol id="shape-tri_prev" viewBox="0 0 36.723 39.277" class="">
	<path fill="#D8722E" stroke="#682718" stroke-width="2" stroke-linecap="round" stroke-linejoin="round" stroke-miterlimit="10" d="
	M28.664,1.544c0,0-17,8.625-19.438,16.634c7.688,25.741,14.232,19.516,22.164,17.414C38.641,33.637,36.148-3.929,28.664,1.544z"/>

	<path fill="#F8F397" stroke="#682718" stroke-width="2" stroke-linecap="round" stroke-linejoin="round" stroke-miterlimit="10" d="
	M21.352,5.606c0,0-18.477,8.973-20.188,14.447c-1.711,5.475,10.264,14.98,20.188,18.059C31.274,41.192,28.837,0.132,21.352,5.606z"
	/>
</symbol>
<symbol id="shape-tri_next" viewBox="0 0 34.126 40.225" class="">
	<path fill="#D8722E" stroke="#682718" stroke-width="2" stroke-linecap="round" stroke-linejoin="round" stroke-miterlimit="10" d="
	M12.792,1.322c0,0,18.477,12.661,20.188,18.135S21.023,34.792,11.101,37.872c-5.943,1.844,0.691-13.789-6.791-23.875
	C0.374,8.693,9.79-0.874,12.792,1.322z"/>

	<path fill="#F8F397" stroke="#682718" stroke-width="2" stroke-linecap="round" stroke-linejoin="round" stroke-miterlimit="10" d="
	M7.56,6.554c0,0,18.477,12.661,20.188,18.135C29.458,30.164,17.483,35.981,7.56,39.06C-2.362,42.14,0.074,1.081,7.56,6.554z"/>
</symbol>

<symbol id="shape-magnifier" viewBox="0 0 20.892 19.125" class="">
<path fill-rule="evenodd" clip-rule="evenodd" d="M1.912,2.702c1.415-1.634,3.359-2.54,5.358-2.683
	c1.998-0.143,4.051,0.477,5.686,1.892c1.634,1.415,2.539,3.359,2.683,5.358c0.114,1.596-0.258,3.228-1.134,4.652l0.848,0.734
	l0.617-0.713l4.922,4.264l-2.529,2.918l-4.922-4.264l0.618-0.712l-0.792-0.687c-1.359,1.314-3.097,2.047-4.878,2.175
	c-1.999,0.144-4.052-0.476-5.687-1.892c-1.633-1.416-2.539-3.359-2.682-5.357C-0.123,6.389,0.496,4.336,1.912,2.702L1.912,2.702z
	 M7.452,2.559c-1.349,0.097-2.66,0.707-3.616,1.811C2.881,5.473,2.463,6.857,2.56,8.206c0.096,1.349,0.707,2.661,1.811,3.616
	c1.103,0.955,2.488,1.373,3.837,1.276s2.66-0.708,3.616-1.811c0.955-1.103,1.373-2.488,1.276-3.837s-0.708-2.66-1.811-3.615
	C10.187,2.88,8.8,2.462,7.452,2.559z"/>
</symbol>

</defs>
</svg>